<svg width="203" height="39" viewBox="0 0 203 39" fill="none" xmlns="http://www.w3.org/2000/svg">
<path d="M180.385 17.2795C180.407 15.4129 180.694 13.7763 181.244 12.3695C181.795 10.936 182.556 9.74514 183.527 8.79681C184.499 7.8218 185.668 7.0892 187.034 6.59899C188.4 6.10878 189.91 5.87366 191.563 5.89363C193.083 5.91198 194.48 6.19554 195.753 6.74429C197.027 7.29304 198.124 8.03968 199.046 8.98422C199.995 9.92908 200.728 11.058 201.246 12.371C201.763 13.684 202.013 15.1005 201.994 16.6204C201.976 18.1669 201.692 19.5903 201.143 20.8904C200.621 22.1642 199.887 23.2621 198.943 24.1841C198.025 25.1064 196.936 25.8266 195.676 26.3448C194.444 26.8366 193.094 27.0737 191.628 27.056C190.108 27.0376 188.765 26.728 187.599 26.1272C186.432 25.5264 185.521 24.7954 184.865 23.9341L184.738 34.4533L180.178 34.3982L180.385 17.2795ZM191.036 23.0085C191.943 23.0195 192.772 22.8695 193.522 22.5585C194.299 22.2212 194.958 21.7625 195.499 21.1823C196.066 20.6024 196.501 19.9143 196.804 19.1179C197.107 18.3215 197.264 17.4566 197.275 16.5234C197.286 15.6168 197.15 14.7751 196.866 13.9983C196.582 13.1948 196.164 12.5097 195.61 11.9429C195.084 11.3499 194.436 10.8887 193.667 10.5594C192.925 10.2037 192.1 10.0204 191.193 10.0095C190.287 9.99852 189.445 10.1484 188.668 10.459C187.917 10.77 187.259 11.202 186.692 11.7552C186.152 12.3088 185.717 12.9836 185.387 13.7796C185.085 14.5494 184.928 15.4142 184.916 16.3741C184.905 17.3074 185.041 18.1758 185.325 18.9793C185.635 19.7831 186.053 20.4815 186.579 21.0746C187.106 21.6676 187.74 22.142 188.482 22.4976C189.252 22.827 190.103 22.9972 191.036 23.0085Z" fill="#7693FF"/>
<path d="M155.387 16.9776C155.409 15.1111 155.696 13.4744 156.246 12.0676C156.797 10.6342 157.558 9.44326 158.529 8.49493C159.501 7.51992 160.67 6.78732 162.036 6.29711C163.402 5.8069 164.912 5.57178 166.565 5.59175C168.085 5.6101 169.482 5.89366 170.755 6.44241C172.029 6.99116 173.126 7.7378 174.048 8.68234C174.997 9.6272 175.73 10.7561 176.248 12.0691C176.765 13.3822 177.015 14.7986 176.996 16.3185C176.978 17.865 176.694 19.2884 176.145 20.5885C175.623 21.8623 174.889 22.9602 173.945 23.8822C173.027 24.8045 171.938 25.5248 170.678 26.0429C169.446 26.5347 168.096 26.7718 166.63 26.7541C165.11 26.7357 163.767 26.4261 162.6 25.8254C161.434 25.2246 160.523 24.4935 159.867 23.6322L159.74 34.1514L155.18 34.0963L155.387 16.9776ZM166.038 22.7066C166.945 22.7176 167.774 22.5676 168.524 22.2566C169.301 21.9193 169.96 21.4606 170.501 20.8804C171.068 20.3005 171.503 19.6124 171.806 18.816C172.109 18.0196 172.266 17.1548 172.277 16.2215C172.288 15.3149 172.152 14.4732 171.868 13.6964C171.584 12.8929 171.166 12.2078 170.612 11.6411C170.086 11.048 169.438 10.5868 168.669 10.2575C167.926 9.90184 167.102 9.71853 166.195 9.70759C165.289 9.69664 164.447 9.84648 163.67 10.1571C162.919 10.4681 162.261 10.9002 161.694 11.4534C161.154 12.0069 160.719 12.6817 160.389 13.4778C160.087 14.2475 159.93 15.1123 159.918 16.0722C159.907 17.0055 160.043 17.8739 160.327 18.6774C160.637 19.4812 161.055 20.1796 161.581 20.7727C162.108 21.3657 162.742 21.8401 163.484 22.1958C164.254 22.5251 165.105 22.6954 166.038 22.7066Z" fill="#7693FF"/>
<path d="M151.064 25.9661C150.797 26.0162 150.37 26.0643 149.783 26.1106C149.222 26.1838 148.554 26.2424 147.78 26.2864C147.006 26.3571 146.139 26.4133 145.178 26.455C144.218 26.4967 143.217 26.5113 142.177 26.4988C140.098 26.4737 138.393 26.2664 137.065 25.877C135.762 25.5146 134.728 25.0354 133.962 24.4394C133.222 23.8171 132.711 23.1176 132.427 22.3407C132.17 21.5376 132.046 20.7227 132.056 19.8961C132.07 18.8028 132.241 17.8448 132.571 17.0221C132.928 16.1997 133.483 15.513 134.236 14.962C135.016 14.4114 136.021 14.0102 137.251 13.7584C138.481 13.4799 139.976 13.3512 141.736 13.3725C142.749 13.3847 143.709 13.4363 144.614 13.5273C145.52 13.5915 146.199 13.6531 146.652 13.7119C146.663 12.7786 146.513 12.0034 146.2 11.3863C145.914 10.7694 145.507 10.2845 144.978 9.93139C144.449 9.5783 143.811 9.33059 143.066 9.18825C142.321 9.04591 141.496 8.96927 140.589 8.95832C139.069 8.93997 137.841 9.09847 136.903 9.43385C135.992 9.76954 135.389 10.0556 135.093 10.292C134.934 10.1568 134.711 9.90074 134.422 9.52389C134.16 9.14736 134.032 8.69245 134.038 8.15916C134.043 7.78585 134.14 7.42701 134.331 7.08262C134.549 6.71189 134.913 6.39626 135.423 6.13573C135.933 5.84854 136.616 5.6301 137.471 5.48041C138.326 5.33073 139.407 5.26378 140.714 5.27955C142.287 5.29855 143.711 5.47577 144.987 5.8112C146.29 6.12029 147.405 6.61378 148.33 7.29167C149.255 7.96956 149.964 8.85819 150.458 9.95756C150.978 11.0573 151.229 12.3804 151.21 13.9269L151.064 25.9661ZM146.652 17.0321C146.386 16.9756 145.88 16.8895 145.135 16.7738C144.416 16.6584 143.324 16.5919 141.857 16.5742C140.044 16.5523 138.721 16.8163 137.887 17.3663C137.054 17.8896 136.631 18.7379 136.617 19.9112C136.611 20.3911 136.685 20.832 136.841 21.234C137.022 21.6362 137.325 21.9865 137.748 22.285C138.171 22.5568 138.742 22.777 139.46 22.9457C140.205 23.088 141.124 23.1658 142.217 23.179C143.444 23.1938 144.418 23.1656 145.139 23.0943C145.86 22.9963 146.341 22.9221 146.582 22.8717L146.652 17.0321Z" fill="#7693FF"/>
<path d="M107.617 16.4007C107.64 14.5342 107.926 12.8975 108.476 11.4907C109.027 10.0573 109.788 8.86637 110.76 7.91804C111.732 6.94303 112.9 6.21043 114.266 5.72022C115.632 5.23002 117.142 4.99489 118.795 5.01486C120.315 5.03321 121.712 5.31677 122.985 5.86552C124.259 6.41427 125.357 7.16091 126.279 8.10545C127.227 9.05031 127.96 10.1792 128.478 11.4923C128.995 12.8053 129.245 14.2217 129.227 15.7416C129.208 17.2882 128.924 18.7115 128.375 20.0116C127.853 21.2854 127.12 22.3833 126.175 23.3053C125.257 24.2276 124.168 24.9479 122.909 25.466C121.676 25.9578 120.326 26.1949 118.86 26.1772C117.34 26.1588 115.997 25.8493 114.831 25.2485C113.665 24.6477 112.753 23.9166 112.097 23.0553L111.97 33.5745L107.41 33.5195L107.617 16.4007ZM118.269 22.1297C119.175 22.1407 120.004 21.9907 120.754 21.6797C121.532 21.3424 122.191 20.8837 122.731 20.3035C123.298 19.7236 123.733 19.0355 124.036 18.2391C124.339 17.4427 124.496 16.5779 124.507 15.6446C124.518 14.738 124.382 13.8963 124.098 13.1195C123.814 12.316 123.396 11.6309 122.843 11.0642C122.316 10.4711 121.669 10.0099 120.899 9.68061C120.157 9.32495 119.332 9.14164 118.426 9.1307C117.519 9.11975 116.677 9.26959 115.9 9.58023C115.149 9.89119 114.491 10.3233 113.924 10.8765C113.384 11.43 112.949 12.1048 112.62 12.9009C112.317 13.6706 112.16 14.5354 112.148 15.4954C112.137 16.4286 112.273 17.297 112.557 18.1005C112.867 18.9043 113.285 19.6027 113.812 20.1958C114.338 20.7889 114.972 21.2632 115.715 21.6189C116.484 21.9482 117.335 22.1185 118.269 22.1297Z" fill="#F5F5F5"/>
<path d="M33.0401 15.5001C33.0626 13.6336 33.3491 11.9969 33.8994 10.5901C34.4501 9.15665 35.2112 7.96575 36.1828 7.01742C37.1546 6.04242 38.3235 5.30981 39.6896 4.8196C41.0556 4.3294 42.5652 4.09428 44.2184 4.11424C45.7383 4.1326 47.135 4.41615 48.4084 4.9649C49.6819 5.51365 50.7796 6.26029 51.7016 7.20483C52.6503 8.14969 53.3834 9.27862 53.9009 10.5916C54.4184 11.9046 54.668 13.3211 54.6496 14.841C54.631 16.3875 54.3471 17.8109 53.798 19.111C53.2759 20.3848 52.5426 21.4827 51.5981 22.4047C50.6802 23.327 49.5914 24.0472 48.3317 24.5654C47.099 25.0572 45.7494 25.2943 44.2829 25.2766C42.763 25.2582 41.4199 24.9486 40.2538 24.3478C39.0876 23.747 38.1764 23.016 37.5201 22.1547L37.393 32.6739L32.8334 32.6188L33.0401 15.5001ZM43.6917 21.2291C44.5983 21.2401 45.4268 21.0901 46.1773 20.7791C46.9548 20.4418 47.6137 19.9831 48.1541 19.4029C48.7211 18.823 49.1561 18.1349 49.4591 17.3385C49.7621 16.5421 49.9192 15.6773 49.9305 14.744C49.9414 13.8374 49.8049 12.9957 49.5209 12.2189C49.2373 11.4154 48.8188 10.7303 48.2656 10.1636C47.7394 9.57049 47.0916 9.1093 46.3222 8.77999C45.5798 8.42433 44.7553 8.24102 43.8487 8.23008C42.9421 8.21913 42.1002 8.36897 41.3231 8.67961C40.5726 8.99057 39.914 9.42265 39.3473 9.97585C38.8072 10.5294 38.3724 11.2042 38.0427 12.0002C37.7401 12.77 37.5829 13.6348 37.5714 14.5947C37.5601 15.528 37.6963 16.3964 37.9799 17.1999C38.2902 18.0037 38.7085 18.7021 39.2347 19.2952C39.7609 19.8882 40.3952 20.3626 41.1377 20.7183C41.9071 21.0476 42.7584 21.2179 43.6917 21.2291Z" fill="#F5F5F5"/>
<path d="M83.9866 7.27469C83.9956 6.52808 84.2154 5.99736 84.6459 5.68254C85.0767 5.34105 85.6788 5.17497 86.452 5.18431C86.932 5.19011 87.3712 5.26208 87.7695 5.40024C88.1682 5.51172 88.4339 5.59494 88.5666 5.64988L88.4395 16.1691C88.4176 17.9823 88.8275 19.374 89.6692 20.3443C90.5112 21.2878 91.8121 21.7702 93.572 21.7915C95.3319 21.8128 96.6441 21.3619 97.5086 20.4389C98.3735 19.4893 98.8169 18.1079 98.8388 16.2947L98.9455 7.45534C98.9545 6.70873 99.1743 6.17801 99.6048 5.86319C100.036 5.5217 100.624 5.35546 101.371 5.36448C101.878 5.3706 102.33 5.44273 102.728 5.58089C103.127 5.69237 103.393 5.77559 103.525 5.83053L103.386 17.3497C103.37 18.7096 103.115 19.9333 102.622 21.0207C102.156 22.0818 101.478 22.9804 100.589 23.7164C99.727 24.4527 98.6935 25.0136 97.4887 25.3991C96.2843 25.7579 94.9622 25.9286 93.5223 25.9112C92.0824 25.8938 90.7647 25.6912 89.5693 25.3034C88.3742 24.889 87.3546 24.3033 86.5103 23.5464C85.666 22.7894 85.0104 21.8748 84.5433 20.8024C84.0765 19.7034 83.8514 18.4739 83.8678 17.114L83.9866 7.27469Z" fill="#F5F5F5"/>
<path d="M69.1811 4.4157C70.7276 4.43437 72.1643 4.71841 73.4911 5.26781C74.8446 5.81752 76.0088 6.57831 76.9838 7.55015C77.9591 8.49533 78.7189 9.62459 79.2631 10.9379C79.8076 12.2246 80.0706 13.6279 80.0523 15.1478C80.0342 16.641 79.7374 18.0375 79.1616 19.3373C78.5862 20.6105 77.7994 21.721 76.8012 22.669C75.8034 23.5904 74.6211 24.3228 73.2544 24.8664C71.9148 25.3836 70.4716 25.6328 68.9251 25.6142C67.3785 25.5955 65.9285 25.3113 64.5751 24.7616C63.2486 24.1855 62.0977 23.4249 61.1224 22.4797C60.1474 21.5079 59.3876 20.3786 58.8431 19.0919C58.2989 17.7786 58.0359 16.3753 58.0539 14.8821C58.0722 13.3622 58.3691 11.9657 58.9445 10.6925C59.5203 9.39274 60.3071 8.28216 61.3049 7.36081C62.3031 6.41279 63.4721 5.68019 64.8117 5.16299C66.1781 4.64612 67.6345 4.39702 69.1811 4.4157ZM68.9739 21.5744C69.8805 21.5854 70.7223 21.4356 71.4995 21.1249C72.2769 20.7876 72.9359 20.3289 73.4762 19.7487C74.0436 19.1422 74.4786 18.454 74.7813 17.6843C75.1109 16.8882 75.2814 16.0235 75.2926 15.0903C75.3039 14.157 75.1544 13.2885 74.8441 12.4847C74.5607 11.6545 74.1426 10.9428 73.5898 10.3494C73.0635 9.7563 72.4157 9.29511 71.6463 8.9658C70.8772 8.60982 70.0394 8.42636 69.1328 8.41541C68.1995 8.40414 67.3442 8.56715 66.5667 8.90446C65.8162 9.21542 65.1575 9.66083 64.5904 10.2407C64.05 10.8209 63.6149 11.5223 63.2849 12.3451C62.9819 13.1415 62.8248 14.0063 62.8135 14.9396C62.8023 15.8728 62.9385 16.7412 63.2221 17.5447C63.5327 18.3218 63.951 19.0203 64.4769 19.64C65.0298 20.2334 65.6774 20.7079 66.4198 21.0636C67.1893 21.3929 68.0406 21.5632 68.9739 21.5744Z" fill="#F5F5F5"/>
<path d="M15.6748 25.7245C15.4993 25.656 3.96615 19.5823 3.79074 19.4909C3.04525 19.1713 2.40939 18.6004 1.97086 17.8469C0.918403 15.9517 1.53234 13.5313 3.35221 12.4353C4.60201 11.6818 6.07107 11.7275 7.23316 12.4581C7.38664 12.5266 18.4375 18.3264 18.6129 18.4406C18.7883 18.5091 18.9418 18.6004 19.1172 18.6917C19.8627 19.0114 20.4985 19.5823 20.9371 20.3358C21.9895 22.231 21.3975 24.6514 19.5776 25.7474C18.3278 26.5237 16.8368 26.4552 15.6748 25.7245Z" fill="#7693FF" fill-opacity="0.4"/>
<path d="M13.6356 12.0376C13.6677 12.5395 13.5154 13.0506 13.1673 13.454C12.4409 14.2958 11.1411 14.3523 10.2677 13.5986C9.72518 13.1305 9.46651 12.4637 9.52199 11.8231C9.51222 11.7229 9.56575 3.63031 9.57274 3.52926C9.54067 3.02734 9.69298 2.51622 10.041 2.11282C10.7675 1.27096 12.0673 1.21453 12.9407 1.96821C13.4832 2.43629 13.7419 3.10314 13.6864 3.7437C13.6978 3.86062 13.6426 11.9365 13.6356 12.0376Z" fill="#D6FF62"/>
<path d="M13.6356 36.0376C13.6677 36.5395 13.5154 37.0506 13.1673 37.454C12.4409 38.2958 11.1411 38.3523 10.2677 37.5986C9.72518 37.1305 9.46651 36.4637 9.52199 35.8231C9.51222 35.7229 9.56575 27.6303 9.57274 27.5293C9.54067 27.0273 9.69298 26.5162 10.041 26.1128C10.7675 25.271 12.0673 25.2145 12.9407 25.9682C13.4832 26.4363 13.7419 27.1031 13.6864 27.7437C13.6978 27.8606 13.6426 35.9365 13.6356 36.0376Z" fill="#D6FF62"/>
<path d="M6.50094 34.7663C5.71479 35.3055 4.73479 35.5534 3.74025 35.378C1.6647 35.012 0.311698 32.9504 0.691415 30.7969C0.927239 29.4595 1.76207 28.3913 2.8589 27.8601C3.0126 27.747 16.2413 19.9824 16.4127 19.8958C17.1988 19.3566 18.1788 19.1087 19.1734 19.284C21.2489 19.65 22.6019 21.7117 22.2222 23.8652C21.9864 25.2026 21.1515 26.2708 20.0547 26.8019C19.8754 26.9339 6.67226 34.6796 6.50094 34.7663Z" fill="#86A0FE"/>
<path d="M6.50117 18.2944C5.71488 18.8344 4.73479 19.0828 3.74025 18.9074C1.68632 18.5453 0.308084 16.5003 0.692275 14.3214C0.928392 12.9823 1.76349 11.9127 2.86046 11.3806C3.0142 11.2673 16.2411 3.51331 16.4124 3.42652C17.1987 2.8865 18.1788 2.63808 19.1734 2.81344C21.2489 3.17942 22.6015 5.24328 22.2213 7.39944C21.9852 8.73853 21.1501 9.80819 20.0532 10.3402C19.8778 10.4497 6.66852 18.2303 6.50117 18.2944Z" fill="#86A0FE"/>
</svg>
